<svg width="26" height="19" viewBox="0 0 26 19" fill="none" xmlns="http://www.w3.org/2000/svg">
<path d="M13.7232 18.1059C13.7948 18.1069 13.8659 18.0937 13.9324 18.067C13.9988 18.0403 14.0593 18.0006 14.1103 17.9503C14.1613 17.9 14.2019 17.8401 14.2295 17.774C14.2571 17.708 14.2714 17.637 14.2714 17.5654C14.2714 17.4938 14.2571 17.4229 14.2295 17.3568C14.2019 17.2907 14.1613 17.2308 14.1103 17.1805C14.0593 17.1302 13.9988 17.0905 13.9324 17.0638C13.8659 17.0371 13.7948 17.0239 13.7232 17.0249L0.750866 17.0249C0.679241 17.0239 0.608129 17.0371 0.541664 17.0638C0.475199 17.0905 0.414703 17.1302 0.363695 17.1805C0.312687 17.2308 0.272184 17.2907 0.244537 17.3568C0.216892 17.4229 0.202654 17.4938 0.202654 17.5654C0.202654 17.637 0.216892 17.708 0.244537 17.774C0.272184 17.8401 0.312687 17.9 0.363695 17.9503C0.414703 18.0006 0.475199 18.0403 0.541664 18.067C0.60813 18.0937 0.679241 18.1069 0.750866 18.1059L13.7232 18.1059ZM24.5334 9.99823C24.605 9.99924 24.6762 9.98601 24.7426 9.9593C24.8091 9.93259 24.8696 9.89294 24.9206 9.84265C24.9716 9.79236 25.0121 9.73243 25.0398 9.66635C25.0674 9.60027 25.0816 9.52935 25.0816 9.45772C25.0816 9.38609 25.0674 9.31517 25.0398 9.24909C25.0121 9.183 24.9716 9.12308 24.9206 9.07279C24.8696 9.02249 24.8091 8.98284 24.7426 8.95613C24.6762 8.92942 24.605 8.91619 24.5334 8.9172L0.750865 8.91721C0.67924 8.91619 0.608129 8.92943 0.541663 8.95614C0.475198 8.98284 0.414703 9.0225 0.363694 9.07279C0.312686 9.12308 0.272184 9.18301 0.244537 9.24909C0.216891 9.31517 0.202653 9.38609 0.202653 9.45772C0.202653 9.52935 0.216891 9.60027 0.244537 9.66635C0.272184 9.73243 0.312686 9.79236 0.363694 9.84265C0.414703 9.89294 0.475198 9.93259 0.541663 9.9593C0.608129 9.98601 0.67924 9.99924 0.750865 9.99823L24.5334 9.99823ZM17.777 1.89054C17.8486 1.89155 17.9198 1.87832 17.9862 1.85161C18.0527 1.8249 18.1132 1.78525 18.1642 1.73496C18.2152 1.68467 18.2557 1.62474 18.2833 1.55866C18.311 1.49258 18.3252 1.42166 18.3252 1.35003C18.3252 1.2784 18.311 1.20748 18.2833 1.1414C18.2557 1.07532 18.2152 1.01539 18.1642 0.965098C18.1132 0.914805 18.0527 0.875153 17.9862 0.848443C17.9198 0.821734 17.8486 0.808503 17.777 0.809516L0.750864 0.809517C0.67924 0.808504 0.608128 0.821736 0.541663 0.848444C0.475197 0.875155 0.414702 0.914807 0.363694 0.9651C0.312685 1.01539 0.272183 1.07532 0.244536 1.1414C0.216891 1.20748 0.202652 1.2784 0.202652 1.35003C0.202652 1.42166 0.216891 1.49258 0.244536 1.55866C0.272183 1.62474 0.312685 1.68467 0.363694 1.73496C0.414702 1.78525 0.475197 1.82491 0.541663 1.85161C0.608128 1.87832 0.67924 1.89155 0.750865 1.89054L17.777 1.89054Z" fill="black"/>
</svg>
